<svg xmlns="http://www.w3.org/2000/svg" version="1.1" xmlns:xlink="http://www.w3.org/1999/xlink" xmlns:svgjs="http://svgjs.dev/svgjs" width="1440" height="560" preserveAspectRatio="none" viewBox="0 0 1440 560"><g mask="url(&quot;#SvgjsMask1000&quot;)" fill="none"><path d="M-96.7 357.59L-96.7 357.59" stroke="#132e65" stroke-width="1.5"></path><path d="M-96.7 357.59L-94.65 498.08" stroke="#132e65" stroke-width="1.5"></path><path d="M-96.7 357.59L106.59 373.01" stroke="#132e65" stroke-width="1.5"></path><path d="M-96.7 357.59L95.08 506.38" stroke="#132e65" stroke-width="1.5"></path><path d="M-96.7 357.59L199.66 394.52" stroke="#132e65" stroke-width="1.5"></path><path d="M-96.7 357.59L-71.85 667.48" stroke="#132e65" stroke-width="1.5"></path><path d="M-94.65 498.08L-94.65 498.08" stroke="#132e65" stroke-width="1.5"></path><path d="M-94.65 498.08L-71.85 667.48" stroke="#132e65" stroke-width="1.5"></path><path d="M-94.65 498.08L95.08 506.38" stroke="#132e65" stroke-width="1.5"></path><path d="M-94.65 498.08L60.41 672.08" stroke="#132e65" stroke-width="1.5"></path><path d="M-94.65 498.08L106.59 373.01" stroke="#132e65" stroke-width="1.5"></path><path d="M-71.85 667.48L-71.85 667.48" stroke="#132e65" stroke-width="1.5"></path><path d="M-71.85 667.48L60.41 672.08" stroke="#132e65" stroke-width="1.5"></path><path d="M-71.85 667.48L95.08 506.38" stroke="#132e65" stroke-width="1.5"></path><path d="M106.59 373.01L106.59 373.01" stroke="#132e65" stroke-width="1.5"></path><path d="M106.59 373.01L199.66 394.52" stroke="#132e65" stroke-width="1.5"></path><path d="M106.59 373.01L95.08 506.38" stroke="#132e65" stroke-width="1.5"></path><path d="M106.59 373.01L224.02 494.53" stroke="#132e65" stroke-width="1.5"></path><path d="M95.08 506.38L95.08 506.38" stroke="#132e65" stroke-width="1.5"></path><path d="M95.08 506.38L224.02 494.53" stroke="#132e65" stroke-width="1.5"></path><path d="M95.08 506.38L199.66 394.52" stroke="#132e65" stroke-width="1.5"></path><path d="M95.08 506.38L60.41 672.08" stroke="#132e65" stroke-width="1.5"></path><path d="M60.41 672.08L60.41 672.08" stroke="#132e65" stroke-width="1.5"></path><path d="M199.66 394.52L199.66 394.52" stroke="#132e65" stroke-width="1.5"></path><path d="M199.66 394.52L224.02 494.53" stroke="#132e65" stroke-width="1.5"></path><path d="M199.66 394.52L349.23 366.3" stroke="#132e65" stroke-width="1.5"></path><path d="M199.66 394.52L383.28 552.65" stroke="#132e65" stroke-width="1.5"></path><path d="M224.02 494.53L224.02 494.53" stroke="#132e65" stroke-width="1.5"></path><path d="M349.23 366.3L349.23 366.3" stroke="#132e65" stroke-width="1.5"></path><path d="M349.23 366.3L224.02 494.53" stroke="#132e65" stroke-width="1.5"></path><path d="M383.28 552.65L383.28 552.65" stroke="#132e65" stroke-width="1.5"></path><path d="M383.28 552.65L403.51 674.85" stroke="#132e65" stroke-width="1.5"></path><path d="M383.28 552.65L517.81 550.9" stroke="#132e65" stroke-width="1.5"></path><path d="M383.28 552.65L224.02 494.53" stroke="#132e65" stroke-width="1.5"></path><path d="M383.28 552.65L349.23 366.3" stroke="#132e65" stroke-width="1.5"></path><path d="M383.28 552.65L534.44 686.69" stroke="#132e65" stroke-width="1.5"></path><path d="M403.51 674.85L403.51 674.85" stroke="#132e65" stroke-width="1.5"></path><path d="M403.51 674.85L534.44 686.69" stroke="#132e65" stroke-width="1.5"></path><path d="M555.07 343.23L555.07 343.23" stroke="#132e65" stroke-width="1.5"></path><path d="M555.07 343.23L695.96 394.08" stroke="#132e65" stroke-width="1.5"></path><path d="M555.07 343.23L701.74 212.44" stroke="#132e65" stroke-width="1.5"></path><path d="M555.07 343.23L349.23 366.3" stroke="#132e65" stroke-width="1.5"></path><path d="M555.07 343.23L517.81 550.9" stroke="#132e65" stroke-width="1.5"></path><path d="M555.07 343.23L711.48 520.53" stroke="#132e65" stroke-width="1.5"></path><path d="M555.07 343.23L792.41 390.47" stroke="#132e65" stroke-width="1.5"></path><path d="M517.81 550.9L517.81 550.9" stroke="#132e65" stroke-width="1.5"></path><path d="M517.81 550.9L534.44 686.69" stroke="#132e65" stroke-width="1.5"></path><path d="M534.44 686.69L534.44 686.69" stroke="#132e65" stroke-width="1.5"></path><path d="M701.74 212.44L701.74 212.44" stroke="#132e65" stroke-width="1.5"></path><path d="M701.74 212.44L850.98 221.36" stroke="#132e65" stroke-width="1.5"></path><path d="M701.74 212.44L695.96 394.08" stroke="#132e65" stroke-width="1.5"></path><path d="M695.96 394.08L695.96 394.08" stroke="#132e65" stroke-width="1.5"></path><path d="M695.96 394.08L792.41 390.47" stroke="#132e65" stroke-width="1.5"></path><path d="M695.96 394.08L711.48 520.53" stroke="#132e65" stroke-width="1.5"></path><path d="M711.48 520.53L711.48 520.53" stroke="#132e65" stroke-width="1.5"></path><path d="M711.48 520.53L832.3 557.85" stroke="#132e65" stroke-width="1.5"></path><path d="M711.48 520.53L792.41 390.47" stroke="#132e65" stroke-width="1.5"></path><path d="M711.48 520.53L517.81 550.9" stroke="#132e65" stroke-width="1.5"></path><path d="M711.48 520.53L845.68 677.61" stroke="#132e65" stroke-width="1.5"></path><path d="M850.98 221.36L850.98 221.36" stroke="#132e65" stroke-width="1.5"></path><path d="M850.98 221.36L951.6 189.88" stroke="#132e65" stroke-width="1.5"></path><path d="M850.98 221.36L988.22 111.11" stroke="#132e65" stroke-width="1.5"></path><path d="M850.98 221.36L792.41 390.47" stroke="#132e65" stroke-width="1.5"></path><path d="M792.41 390.47L792.41 390.47" stroke="#132e65" stroke-width="1.5"></path><path d="M792.41 390.47L832.3 557.85" stroke="#132e65" stroke-width="1.5"></path><path d="M792.41 390.47L701.74 212.44" stroke="#132e65" stroke-width="1.5"></path><path d="M832.3 557.85L832.3 557.85" stroke="#132e65" stroke-width="1.5"></path><path d="M832.3 557.85L845.68 677.61" stroke="#132e65" stroke-width="1.5"></path><path d="M832.3 557.85L970.32 501.96" stroke="#132e65" stroke-width="1.5"></path><path d="M832.3 557.85L957.63 670.89" stroke="#132e65" stroke-width="1.5"></path><path d="M832.3 557.85L695.96 394.08" stroke="#132e65" stroke-width="1.5"></path><path d="M845.68 677.61L845.68 677.61" stroke="#132e65" stroke-width="1.5"></path><path d="M845.68 677.61L957.63 670.89" stroke="#132e65" stroke-width="1.5"></path><path d="M845.68 677.61L970.32 501.96" stroke="#132e65" stroke-width="1.5"></path><path d="M845.68 677.61L1113.6 648.25" stroke="#132e65" stroke-width="1.5"></path><path d="M958.99 -62L958.99 -62" stroke="#132e65" stroke-width="1.5"></path><path d="M958.99 -62L1119.36 -45.14" stroke="#132e65" stroke-width="1.5"></path><path d="M988.22 111.11L988.22 111.11" stroke="#132e65" stroke-width="1.5"></path><path d="M988.22 111.11L951.6 189.88" stroke="#132e65" stroke-width="1.5"></path><path d="M988.22 111.11L1111.86 77.11" stroke="#132e65" stroke-width="1.5"></path><path d="M988.22 111.11L958.99 -62" stroke="#132e65" stroke-width="1.5"></path><path d="M951.6 189.88L951.6 189.88" stroke="#132e65" stroke-width="1.5"></path><path d="M951.6 189.88L1111.86 77.11" stroke="#132e65" stroke-width="1.5"></path><path d="M951.6 189.88L1153.4 241.61" stroke="#132e65" stroke-width="1.5"></path><path d="M951.6 189.88L1109.12 354.89" stroke="#132e65" stroke-width="1.5"></path><path d="M970.32 501.96L970.32 501.96" stroke="#132e65" stroke-width="1.5"></path><path d="M970.32 501.96L1109.63 528.56" stroke="#132e65" stroke-width="1.5"></path><path d="M970.32 501.96L957.63 670.89" stroke="#132e65" stroke-width="1.5"></path><path d="M970.32 501.96L1109.12 354.89" stroke="#132e65" stroke-width="1.5"></path><path d="M970.32 501.96L1113.6 648.25" stroke="#132e65" stroke-width="1.5"></path><path d="M957.63 670.89L957.63 670.89" stroke="#132e65" stroke-width="1.5"></path><path d="M957.63 670.89L1113.6 648.25" stroke="#132e65" stroke-width="1.5"></path><path d="M1119.36 -45.14L1119.36 -45.14" stroke="#132e65" stroke-width="1.5"></path><path d="M1119.36 -45.14L1111.86 77.11" stroke="#132e65" stroke-width="1.5"></path><path d="M1119.36 -45.14L1275.58 -47.82" stroke="#132e65" stroke-width="1.5"></path><path d="M1119.36 -45.14L1249.41 43.38" stroke="#132e65" stroke-width="1.5"></path><path d="M1119.36 -45.14L988.22 111.11" stroke="#132e65" stroke-width="1.5"></path><path d="M1111.86 77.11L1111.86 77.11" stroke="#132e65" stroke-width="1.5"></path><path d="M1153.4 241.61L1153.4 241.61" stroke="#132e65" stroke-width="1.5"></path><path d="M1153.4 241.61L1109.12 354.89" stroke="#132e65" stroke-width="1.5"></path><path d="M1153.4 241.61L1310.79 219.99" stroke="#132e65" stroke-width="1.5"></path><path d="M1153.4 241.61L1111.86 77.11" stroke="#132e65" stroke-width="1.5"></path><path d="M1109.12 354.89L1109.12 354.89" stroke="#132e65" stroke-width="1.5"></path><path d="M1109.12 354.89L1109.63 528.56" stroke="#132e65" stroke-width="1.5"></path><path d="M1109.63 528.56L1109.63 528.56" stroke="#132e65" stroke-width="1.5"></path><path d="M1109.63 528.56L1113.6 648.25" stroke="#132e65" stroke-width="1.5"></path><path d="M1109.63 528.56L1303.54 549.06" stroke="#132e65" stroke-width="1.5"></path><path d="M1109.63 528.56L957.63 670.89" stroke="#132e65" stroke-width="1.5"></path><path d="M1113.6 648.25L1113.6 648.25" stroke="#132e65" stroke-width="1.5"></path><path d="M1113.6 648.25L1283.48 678.04" stroke="#132e65" stroke-width="1.5"></path><path d="M1113.6 648.25L1303.54 549.06" stroke="#132e65" stroke-width="1.5"></path><path d="M1275.58 -47.82L1275.58 -47.82" stroke="#132e65" stroke-width="1.5"></path><path d="M1275.58 -47.82L1249.41 43.38" stroke="#132e65" stroke-width="1.5"></path><path d="M1275.58 -47.82L1427 -77.24" stroke="#132e65" stroke-width="1.5"></path><path d="M1275.58 -47.82L1111.86 77.11" stroke="#132e65" stroke-width="1.5"></path><path d="M1275.58 -47.82L1432.7 90.61" stroke="#132e65" stroke-width="1.5"></path><path d="M1249.41 43.38L1249.41 43.38" stroke="#132e65" stroke-width="1.5"></path><path d="M1249.41 43.38L1111.86 77.11" stroke="#132e65" stroke-width="1.5"></path><path d="M1249.41 43.38L1310.79 219.99" stroke="#132e65" stroke-width="1.5"></path><path d="M1310.79 219.99L1310.79 219.99" stroke="#132e65" stroke-width="1.5"></path><path d="M1310.79 219.99L1450.21 233.36" stroke="#132e65" stroke-width="1.5"></path><path d="M1310.79 219.99L1432.7 90.61" stroke="#132e65" stroke-width="1.5"></path><path d="M1303.54 549.06L1303.54 549.06" stroke="#132e65" stroke-width="1.5"></path><path d="M1303.54 549.06L1283.48 678.04" stroke="#132e65" stroke-width="1.5"></path><path d="M1303.54 549.06L1432.88 493.89" stroke="#132e65" stroke-width="1.5"></path><path d="M1303.54 549.06L1438.72 645.3" stroke="#132e65" stroke-width="1.5"></path><path d="M1303.54 549.06L1418.75 405.96" stroke="#132e65" stroke-width="1.5"></path><path d="M1283.48 678.04L1283.48 678.04" stroke="#132e65" stroke-width="1.5"></path><path d="M1283.48 678.04L1438.72 645.3" stroke="#132e65" stroke-width="1.5"></path><path d="M1283.48 678.04L1109.63 528.56" stroke="#132e65" stroke-width="1.5"></path><path d="M1283.48 678.04L1432.88 493.89" stroke="#132e65" stroke-width="1.5"></path><path d="M1427 -77.24L1427 -77.24" stroke="#132e65" stroke-width="1.5"></path><path d="M1427 -77.24L1561.52 -111.28" stroke="#132e65" stroke-width="1.5"></path><path d="M1427 -77.24L1432.7 90.61" stroke="#132e65" stroke-width="1.5"></path><path d="M1427 -77.24L1249.41 43.38" stroke="#132e65" stroke-width="1.5"></path><path d="M1432.7 90.61L1432.7 90.61" stroke="#132e65" stroke-width="1.5"></path><path d="M1432.7 90.61L1450.21 233.36" stroke="#132e65" stroke-width="1.5"></path><path d="M1450.21 233.36L1450.21 233.36" stroke="#132e65" stroke-width="1.5"></path><path d="M1450.21 233.36L1579.15 207.1" stroke="#132e65" stroke-width="1.5"></path><path d="M1450.21 233.36L1418.75 405.96" stroke="#132e65" stroke-width="1.5"></path><path d="M1450.21 233.36L1610.59 110.82" stroke="#132e65" stroke-width="1.5"></path><path d="M1418.75 405.96L1418.75 405.96" stroke="#132e65" stroke-width="1.5"></path><path d="M1418.75 405.96L1432.88 493.89" stroke="#132e65" stroke-width="1.5"></path><path d="M1418.75 405.96L1574.21 400.73" stroke="#132e65" stroke-width="1.5"></path><path d="M1418.75 405.96L1310.79 219.99" stroke="#132e65" stroke-width="1.5"></path><path d="M1418.75 405.96L1438.72 645.3" stroke="#132e65" stroke-width="1.5"></path><path d="M1432.88 493.89L1432.88 493.89" stroke="#132e65" stroke-width="1.5"></path><path d="M1432.88 493.89L1438.72 645.3" stroke="#132e65" stroke-width="1.5"></path><path d="M1432.88 493.89L1574.21 400.73" stroke="#132e65" stroke-width="1.5"></path><path d="M1438.72 645.3L1438.72 645.3" stroke="#132e65" stroke-width="1.5"></path><path d="M1561.52 -111.28L1561.52 -111.28" stroke="#132e65" stroke-width="1.5"></path><path d="M1561.52 -111.28L1610.59 110.82" stroke="#132e65" stroke-width="1.5"></path><path d="M1561.52 -111.28L1432.7 90.61" stroke="#132e65" stroke-width="1.5"></path><path d="M1610.59 110.82L1610.59 110.82" stroke="#132e65" stroke-width="1.5"></path><path d="M1610.59 110.82L1579.15 207.1" stroke="#132e65" stroke-width="1.5"></path><path d="M1610.59 110.82L1432.7 90.61" stroke="#132e65" stroke-width="1.5"></path><path d="M1579.15 207.1L1579.15 207.1" stroke="#132e65" stroke-width="1.5"></path><path d="M1579.15 207.1L1432.7 90.61" stroke="#132e65" stroke-width="1.5"></path><path d="M1579.15 207.1L1574.21 400.73" stroke="#132e65" stroke-width="1.5"></path><path d="M1574.21 400.73L1574.21 400.73" stroke="#132e65" stroke-width="1.5"></path><circle r="5" cx="-96.7" cy="357.59" fill="#132e65"></circle><circle r="5" cx="-94.65" cy="498.08" fill="#132e65"></circle><circle r="5" cx="-71.85" cy="667.48" fill="#132e65"></circle><circle r="5" cx="106.59" cy="373.01" fill="#132e65"></circle><circle r="5" cx="95.08" cy="506.38" fill="#132e65"></circle><circle r="5" cx="60.41" cy="672.08" fill="#132e65"></circle><circle r="5" cx="199.66" cy="394.52" fill="#132e65"></circle><circle r="5" cx="224.02" cy="494.53" fill="#132e65"></circle><circle r="5" cx="349.23" cy="366.3" fill="#132e65"></circle><circle r="5" cx="383.28" cy="552.65" fill="#132e65"></circle><circle r="5" cx="403.51" cy="674.85" fill="#132e65"></circle><circle r="5" cx="555.07" cy="343.23" fill="#132e65"></circle><circle r="5" cx="517.81" cy="550.9" fill="#132e65"></circle><circle r="5" cx="534.44" cy="686.69" fill="#132e65"></circle><circle r="5" cx="701.74" cy="212.44" fill="#132e65"></circle><circle r="5" cx="695.96" cy="394.08" fill="#132e65"></circle><circle r="5" cx="711.48" cy="520.53" fill="#132e65"></circle><circle r="5" cx="850.98" cy="221.36" fill="#132e65"></circle><circle r="5" cx="792.41" cy="390.47" fill="#132e65"></circle><circle r="5" cx="832.3" cy="557.85" fill="#132e65"></circle><circle r="5" cx="845.68" cy="677.61" fill="#132e65"></circle><circle r="5" cx="958.99" cy="-62" fill="#132e65"></circle><circle r="5" cx="988.22" cy="111.11" fill="#132e65"></circle><circle r="5" cx="951.6" cy="189.88" fill="#132e65"></circle><circle r="5" cx="970.32" cy="501.96" fill="#132e65"></circle><circle r="5" cx="957.63" cy="670.89" fill="#132e65"></circle><circle r="5" cx="1119.36" cy="-45.14" fill="#132e65"></circle><circle r="5" cx="1111.86" cy="77.11" fill="#132e65"></circle><circle r="5" cx="1153.4" cy="241.61" fill="#132e65"></circle><circle r="5" cx="1109.12" cy="354.89" fill="#132e65"></circle><circle r="5" cx="1109.63" cy="528.56" fill="#132e65"></circle><circle r="5" cx="1113.6" cy="648.25" fill="#132e65"></circle><circle r="5" cx="1275.58" cy="-47.82" fill="#132e65"></circle><circle r="5" cx="1249.41" cy="43.38" fill="#132e65"></circle><circle r="5" cx="1310.79" cy="219.99" fill="#132e65"></circle><circle r="5" cx="1303.54" cy="549.06" fill="#132e65"></circle><circle r="5" cx="1283.48" cy="678.04" fill="#132e65"></circle><circle r="5" cx="1427" cy="-77.24" fill="#132e65"></circle><circle r="5" cx="1432.7" cy="90.61" fill="#132e65"></circle><circle r="5" cx="1450.21" cy="233.36" fill="#132e65"></circle><circle r="5" cx="1418.75" cy="405.96" fill="#132e65"></circle><circle r="5" cx="1432.88" cy="493.89" fill="#132e65"></circle><circle r="5" cx="1438.72" cy="645.3" fill="#132e65"></circle><circle r="5" cx="1561.52" cy="-111.28" fill="#132e65"></circle><circle r="5" cx="1610.59" cy="110.82" fill="#132e65"></circle><circle r="5" cx="1579.15" cy="207.1" fill="#132e65"></circle><circle r="5" cx="1574.21" cy="400.73" fill="#132e65"></circle><path d="M-98.55 671.94L-98.55 671.94" stroke="hsl(228.5, 77.2%, 51.5%)" stroke-width="1.5"></path><path d="M-98.55 671.94L-109.23 561.52" stroke="hsl(228.5, 77.2%, 51.5%)" stroke-width="1.5"></path><path d="M51.24 707.27L51.24 707.27" stroke="hsl(228.5, 77.2%, 51.5%)" stroke-width="1.5"></path><path d="M51.24 707.27L-98.55 671.94" stroke="hsl(228.5, 77.2%, 51.5%)" stroke-width="1.5"></path><path d="M51.24 707.27L210.98 655.87" stroke="hsl(228.5, 77.2%, 51.5%)" stroke-width="1.5"></path><path d="M51.24 707.27L92.15 522.62" stroke="hsl(228.5, 77.2%, 51.5%)" stroke-width="1.5"></path><path d="M51.24 707.27L-109.23 561.52" stroke="hsl(228.5, 77.2%, 51.5%)" stroke-width="1.5"></path><path d="M548.62 534.5L548.62 534.5" stroke="hsl(228.5, 77.2%, 51.5%)" stroke-width="1.5"></path><path d="M548.62 534.5L649.93 518.89" stroke="hsl(228.5, 77.2%, 51.5%)" stroke-width="1.5"></path><path d="M548.62 534.5L653.42 642.42" stroke="hsl(228.5, 77.2%, 51.5%)" stroke-width="1.5"></path><path d="M548.62 534.5L390.72 491.28" stroke="hsl(228.5, 77.2%, 51.5%)" stroke-width="1.5"></path><path d="M1147.03 545.09L1147.03 545.09" stroke="hsl(228.5, 77.2%, 51.5%)" stroke-width="1.5"></path><path d="M1147.03 545.09L1116.3 655.26" stroke="hsl(228.5, 77.2%, 51.5%)" stroke-width="1.5"></path><path d="M1147.03 545.09L1260.07 488.86" stroke="hsl(228.5, 77.2%, 51.5%)" stroke-width="1.5"></path><path d="M1147.03 545.09L1260.68 662.36" stroke="hsl(228.5, 77.2%, 51.5%)" stroke-width="1.5"></path><path d="M1147.03 545.09L1254.67 384.97" stroke="hsl(228.5, 77.2%, 51.5%)" stroke-width="1.5"></path><path d="M1147.03 545.09L1119.53 352.86" stroke="hsl(228.5, 77.2%, 51.5%)" stroke-width="1.5"></path><path d="M1147.03 545.09L937.71 516.46" stroke="hsl(228.5, 77.2%, 51.5%)" stroke-width="1.5"></path><path d="M1441.43 108.13L1441.43 108.13" stroke="hsl(228.5, 77.2%, 51.5%)" stroke-width="1.5"></path><path d="M1441.43 108.13L1543.84 103.73" stroke="hsl(228.5, 77.2%, 51.5%)" stroke-width="1.5"></path><path d="M1441.43 108.13L1403.43 213.29" stroke="hsl(228.5, 77.2%, 51.5%)" stroke-width="1.5"></path><path d="M1537.62 546.43L1537.62 546.43" stroke="hsl(228.5, 77.2%, 51.5%)" stroke-width="1.5"></path><path d="M1537.62 546.43L1575.21 647.94" stroke="hsl(228.5, 77.2%, 51.5%)" stroke-width="1.5"></path><path d="M1537.62 546.43L1420.31 494.18" stroke="hsl(228.5, 77.2%, 51.5%)" stroke-width="1.5"></path><path d="M1537.62 546.43L1599.7 407.89" stroke="hsl(228.5, 77.2%, 51.5%)" stroke-width="1.5"></path><path d="M1537.62 546.43L1412.16 339.18" stroke="hsl(228.5, 77.2%, 51.5%)" stroke-width="1.5"></path><path d="M1537.62 546.43L1260.07 488.86" stroke="hsl(228.5, 77.2%, 51.5%)" stroke-width="1.5"></path><path d="M1537.62 546.43L1260.68 662.36" stroke="hsl(228.5, 77.2%, 51.5%)" stroke-width="1.5"></path><path d="M1575.21 647.94L1575.21 647.94" stroke="hsl(228.5, 77.2%, 51.5%)" stroke-width="1.5"></path><path d="M1575.21 647.94L1420.31 494.18" stroke="hsl(228.5, 77.2%, 51.5%)" stroke-width="1.5"></path><path d="M-109.23 561.52L-109.23 561.52" stroke="hsl(228.5, 77.2%, 51.5%)" stroke-width="1.5"></path><path d="M-109.23 561.52L92.15 522.62" stroke="hsl(228.5, 77.2%, 51.5%)" stroke-width="1.5"></path><path d="M92.15 522.62L92.15 522.62" stroke="hsl(228.5, 77.2%, 51.5%)" stroke-width="1.5"></path><path d="M92.15 522.62L211.42 502.68" stroke="hsl(228.5, 77.2%, 51.5%)" stroke-width="1.5"></path><path d="M92.15 522.62L210.98 655.87" stroke="hsl(228.5, 77.2%, 51.5%)" stroke-width="1.5"></path><path d="M211.42 502.68L211.42 502.68" stroke="hsl(228.5, 77.2%, 51.5%)" stroke-width="1.5"></path><path d="M211.42 502.68L210.98 655.87" stroke="hsl(228.5, 77.2%, 51.5%)" stroke-width="1.5"></path><path d="M210.98 655.87L210.98 655.87" stroke="hsl(228.5, 77.2%, 51.5%)" stroke-width="1.5"></path><path d="M390.72 491.28L390.72 491.28" stroke="hsl(228.5, 77.2%, 51.5%)" stroke-width="1.5"></path><path d="M390.72 491.28L401.51 643.95" stroke="hsl(228.5, 77.2%, 51.5%)" stroke-width="1.5"></path><path d="M390.72 491.28L211.42 502.68" stroke="hsl(228.5, 77.2%, 51.5%)" stroke-width="1.5"></path><path d="M390.72 491.28L210.98 655.87" stroke="hsl(228.5, 77.2%, 51.5%)" stroke-width="1.5"></path><path d="M401.51 643.95L401.51 643.95" stroke="hsl(228.5, 77.2%, 51.5%)" stroke-width="1.5"></path><path d="M401.51 643.95L548.62 534.5" stroke="hsl(228.5, 77.2%, 51.5%)" stroke-width="1.5"></path><path d="M401.51 643.95L210.98 655.87" stroke="hsl(228.5, 77.2%, 51.5%)" stroke-width="1.5"></path><path d="M649.93 518.89L649.93 518.89" stroke="hsl(228.5, 77.2%, 51.5%)" stroke-width="1.5"></path><path d="M649.93 518.89L653.42 642.42" stroke="hsl(228.5, 77.2%, 51.5%)" stroke-width="1.5"></path><path d="M649.93 518.89L816.81 493.26" stroke="hsl(228.5, 77.2%, 51.5%)" stroke-width="1.5"></path><path d="M649.93 518.89L810.27 403.04" stroke="hsl(228.5, 77.2%, 51.5%)" stroke-width="1.5"></path><path d="M653.42 642.42L653.42 642.42" stroke="hsl(228.5, 77.2%, 51.5%)" stroke-width="1.5"></path><path d="M653.42 642.42L814.14 702.27" stroke="hsl(228.5, 77.2%, 51.5%)" stroke-width="1.5"></path><path d="M653.42 642.42L816.81 493.26" stroke="hsl(228.5, 77.2%, 51.5%)" stroke-width="1.5"></path><path d="M653.42 642.42L401.51 643.95" stroke="hsl(228.5, 77.2%, 51.5%)" stroke-width="1.5"></path><path d="M653.42 642.42L810.27 403.04" stroke="hsl(228.5, 77.2%, 51.5%)" stroke-width="1.5"></path><path d="M810.27 403.04L810.27 403.04" stroke="hsl(228.5, 77.2%, 51.5%)" stroke-width="1.5"></path><path d="M810.27 403.04L816.81 493.26" stroke="hsl(228.5, 77.2%, 51.5%)" stroke-width="1.5"></path><path d="M810.27 403.04L967.28 402.4" stroke="hsl(228.5, 77.2%, 51.5%)" stroke-width="1.5"></path><path d="M810.27 403.04L937.71 516.46" stroke="hsl(228.5, 77.2%, 51.5%)" stroke-width="1.5"></path><path d="M810.27 403.04L1000.38 243.15" stroke="hsl(228.5, 77.2%, 51.5%)" stroke-width="1.5"></path><path d="M816.81 493.26L816.81 493.26" stroke="hsl(228.5, 77.2%, 51.5%)" stroke-width="1.5"></path><path d="M816.81 493.26L937.71 516.46" stroke="hsl(228.5, 77.2%, 51.5%)" stroke-width="1.5"></path><path d="M814.14 702.27L814.14 702.27" stroke="hsl(228.5, 77.2%, 51.5%)" stroke-width="1.5"></path><path d="M814.14 702.27L967.31 665.67" stroke="hsl(228.5, 77.2%, 51.5%)" stroke-width="1.5"></path><path d="M1000.38 243.15L1000.38 243.15" stroke="hsl(228.5, 77.2%, 51.5%)" stroke-width="1.5"></path><path d="M1000.38 243.15L1088.41 262.4" stroke="hsl(228.5, 77.2%, 51.5%)" stroke-width="1.5"></path><path d="M1000.38 243.15L1119.53 352.86" stroke="hsl(228.5, 77.2%, 51.5%)" stroke-width="1.5"></path><path d="M1000.38 243.15L967.28 402.4" stroke="hsl(228.5, 77.2%, 51.5%)" stroke-width="1.5"></path><path d="M967.28 402.4L967.28 402.4" stroke="hsl(228.5, 77.2%, 51.5%)" stroke-width="1.5"></path><path d="M967.28 402.4L937.71 516.46" stroke="hsl(228.5, 77.2%, 51.5%)" stroke-width="1.5"></path><path d="M967.28 402.4L1119.53 352.86" stroke="hsl(228.5, 77.2%, 51.5%)" stroke-width="1.5"></path><path d="M937.71 516.46L937.71 516.46" stroke="hsl(228.5, 77.2%, 51.5%)" stroke-width="1.5"></path><path d="M937.71 516.46L967.31 665.67" stroke="hsl(228.5, 77.2%, 51.5%)" stroke-width="1.5"></path><path d="M967.31 665.67L967.31 665.67" stroke="hsl(228.5, 77.2%, 51.5%)" stroke-width="1.5"></path><path d="M967.31 665.67L1116.3 655.26" stroke="hsl(228.5, 77.2%, 51.5%)" stroke-width="1.5"></path><path d="M1156.98 -100.86L1156.98 -100.86" stroke="hsl(228.5, 77.2%, 51.5%)" stroke-width="1.5"></path><path d="M1156.98 -100.86L1301.09 -60.2" stroke="hsl(228.5, 77.2%, 51.5%)" stroke-width="1.5"></path><path d="M1156.98 -100.86L1449.33 -82.16" stroke="hsl(228.5, 77.2%, 51.5%)" stroke-width="1.5"></path><path d="M1156.98 -100.86L1441.43 108.13" stroke="hsl(228.5, 77.2%, 51.5%)" stroke-width="1.5"></path><path d="M1156.98 -100.86L1088.41 262.4" stroke="hsl(228.5, 77.2%, 51.5%)" stroke-width="1.5"></path><path d="M1088.41 262.4L1088.41 262.4" stroke="hsl(228.5, 77.2%, 51.5%)" stroke-width="1.5"></path><path d="M1088.41 262.4L1119.53 352.86" stroke="hsl(228.5, 77.2%, 51.5%)" stroke-width="1.5"></path><path d="M1088.41 262.4L967.28 402.4" stroke="hsl(228.5, 77.2%, 51.5%)" stroke-width="1.5"></path><path d="M1088.41 262.4L1254.67 384.97" stroke="hsl(228.5, 77.2%, 51.5%)" stroke-width="1.5"></path><path d="M1088.41 262.4L1260.07 488.86" stroke="hsl(228.5, 77.2%, 51.5%)" stroke-width="1.5"></path><path d="M1119.53 352.86L1119.53 352.86" stroke="hsl(228.5, 77.2%, 51.5%)" stroke-width="1.5"></path><path d="M1119.53 352.86L1254.67 384.97" stroke="hsl(228.5, 77.2%, 51.5%)" stroke-width="1.5"></path><path d="M1116.3 655.26L1116.3 655.26" stroke="hsl(228.5, 77.2%, 51.5%)" stroke-width="1.5"></path><path d="M1116.3 655.26L1260.68 662.36" stroke="hsl(228.5, 77.2%, 51.5%)" stroke-width="1.5"></path><path d="M1301.09 -60.2L1301.09 -60.2" stroke="hsl(228.5, 77.2%, 51.5%)" stroke-width="1.5"></path><path d="M1301.09 -60.2L1449.33 -82.16" stroke="hsl(228.5, 77.2%, 51.5%)" stroke-width="1.5"></path><path d="M1301.09 -60.2L1441.43 108.13" stroke="hsl(228.5, 77.2%, 51.5%)" stroke-width="1.5"></path><path d="M1254.67 384.97L1254.67 384.97" stroke="hsl(228.5, 77.2%, 51.5%)" stroke-width="1.5"></path><path d="M1254.67 384.97L1260.07 488.86" stroke="hsl(228.5, 77.2%, 51.5%)" stroke-width="1.5"></path><path d="M1254.67 384.97L1412.16 339.18" stroke="hsl(228.5, 77.2%, 51.5%)" stroke-width="1.5"></path><path d="M1260.07 488.86L1260.07 488.86" stroke="hsl(228.5, 77.2%, 51.5%)" stroke-width="1.5"></path><path d="M1260.07 488.86L1420.31 494.18" stroke="hsl(228.5, 77.2%, 51.5%)" stroke-width="1.5"></path><path d="M1260.68 662.36L1260.68 662.36" stroke="hsl(228.5, 77.2%, 51.5%)" stroke-width="1.5"></path><path d="M1449.33 -82.16L1449.33 -82.16" stroke="hsl(228.5, 77.2%, 51.5%)" stroke-width="1.5"></path><path d="M1449.33 -82.16L1557.94 -50.18" stroke="hsl(228.5, 77.2%, 51.5%)" stroke-width="1.5"></path><path d="M1449.33 -82.16L1441.43 108.13" stroke="hsl(228.5, 77.2%, 51.5%)" stroke-width="1.5"></path><path d="M1449.33 -82.16L1543.84 103.73" stroke="hsl(228.5, 77.2%, 51.5%)" stroke-width="1.5"></path><path d="M1449.33 -82.16L1403.43 213.29" stroke="hsl(228.5, 77.2%, 51.5%)" stroke-width="1.5"></path><path d="M1403.43 213.29L1403.43 213.29" stroke="hsl(228.5, 77.2%, 51.5%)" stroke-width="1.5"></path><path d="M1403.43 213.29L1412.16 339.18" stroke="hsl(228.5, 77.2%, 51.5%)" stroke-width="1.5"></path><path d="M1412.16 339.18L1412.16 339.18" stroke="hsl(228.5, 77.2%, 51.5%)" stroke-width="1.5"></path><path d="M1412.16 339.18L1420.31 494.18" stroke="hsl(228.5, 77.2%, 51.5%)" stroke-width="1.5"></path><path d="M1412.16 339.18L1554.41 206.69" stroke="hsl(228.5, 77.2%, 51.5%)" stroke-width="1.5"></path><path d="M1412.16 339.18L1599.7 407.89" stroke="hsl(228.5, 77.2%, 51.5%)" stroke-width="1.5"></path><path d="M1420.31 494.18L1420.31 494.18" stroke="hsl(228.5, 77.2%, 51.5%)" stroke-width="1.5"></path><path d="M1557.94 -50.18L1557.94 -50.18" stroke="hsl(228.5, 77.2%, 51.5%)" stroke-width="1.5"></path><path d="M1557.94 -50.18L1543.84 103.73" stroke="hsl(228.5, 77.2%, 51.5%)" stroke-width="1.5"></path><path d="M1557.94 -50.18L1441.43 108.13" stroke="hsl(228.5, 77.2%, 51.5%)" stroke-width="1.5"></path><path d="M1543.84 103.73L1543.84 103.73" stroke="hsl(228.5, 77.2%, 51.5%)" stroke-width="1.5"></path><path d="M1543.84 103.73L1554.41 206.69" stroke="hsl(228.5, 77.2%, 51.5%)" stroke-width="1.5"></path><path d="M1543.84 103.73L1403.43 213.29" stroke="hsl(228.5, 77.2%, 51.5%)" stroke-width="1.5"></path><path d="M1554.41 206.69L1554.41 206.69" stroke="hsl(228.5, 77.2%, 51.5%)" stroke-width="1.5"></path><path d="M1554.41 206.69L1441.43 108.13" stroke="hsl(228.5, 77.2%, 51.5%)" stroke-width="1.5"></path><path d="M1554.41 206.69L1403.43 213.29" stroke="hsl(228.5, 77.2%, 51.5%)" stroke-width="1.5"></path><path d="M1554.41 206.69L1599.7 407.89" stroke="hsl(228.5, 77.2%, 51.5%)" stroke-width="1.5"></path><path d="M1554.41 206.69L1557.94 -50.18" stroke="hsl(228.5, 77.2%, 51.5%)" stroke-width="1.5"></path><path d="M1599.7 407.89L1599.7 407.89" stroke="hsl(228.5, 77.2%, 51.5%)" stroke-width="1.5"></path><path d="M1599.7 407.89L1420.31 494.18" stroke="hsl(228.5, 77.2%, 51.5%)" stroke-width="1.5"></path><path d="M1599.7 407.89L1575.21 647.94" stroke="hsl(228.5, 77.2%, 51.5%)" stroke-width="1.5"></path><circle r="25" cx="-98.55" cy="671.94" fill="url(&quot;#SvgjsRadialGradient1001&quot;)"></circle><circle r="25" cx="51.24" cy="707.27" fill="url(&quot;#SvgjsRadialGradient1001&quot;)"></circle><circle r="25" cx="548.62" cy="534.5" fill="url(&quot;#SvgjsRadialGradient1001&quot;)"></circle><circle r="25" cx="1147.03" cy="545.09" fill="url(&quot;#SvgjsRadialGradient1001&quot;)"></circle><circle r="25" cx="1441.43" cy="108.13" fill="url(&quot;#SvgjsRadialGradient1001&quot;)"></circle><circle r="25" cx="1537.62" cy="546.43" fill="url(&quot;#SvgjsRadialGradient1001&quot;)"></circle><circle r="25" cx="1575.21" cy="647.94" fill="url(&quot;#SvgjsRadialGradient1001&quot;)"></circle><circle r="5" cx="-109.23" cy="561.52" fill="#8b9ad9"></circle><circle r="5" cx="92.15" cy="522.62" fill="#8b9ad9"></circle><circle r="5" cx="211.42" cy="502.68" fill="#8b9ad9"></circle><circle r="5" cx="210.98" cy="655.87" fill="#8b9ad9"></circle><circle r="5" cx="390.72" cy="491.28" fill="#8b9ad9"></circle><circle r="5" cx="401.51" cy="643.95" fill="#8b9ad9"></circle><circle r="5" cx="649.93" cy="518.89" fill="#8b9ad9"></circle><circle r="5" cx="653.42" cy="642.42" fill="#8b9ad9"></circle><circle r="5" cx="810.27" cy="403.04" fill="#8b9ad9"></circle><circle r="5" cx="816.81" cy="493.26" fill="#8b9ad9"></circle><circle r="5" cx="814.14" cy="702.27" fill="#8b9ad9"></circle><circle r="5" cx="1000.38" cy="243.15" fill="#8b9ad9"></circle><circle r="5" cx="967.28" cy="402.4" fill="#8b9ad9"></circle><circle r="5" cx="937.71" cy="516.46" fill="#8b9ad9"></circle><circle r="5" cx="967.31" cy="665.67" fill="#8b9ad9"></circle><circle r="5" cx="1156.98" cy="-100.86" fill="#8b9ad9"></circle><circle r="5" cx="1088.41" cy="262.4" fill="#8b9ad9"></circle><circle r="5" cx="1119.53" cy="352.86" fill="#8b9ad9"></circle><circle r="5" cx="1116.3" cy="655.26" fill="#8b9ad9"></circle><circle r="5" cx="1301.09" cy="-60.2" fill="#8b9ad9"></circle><circle r="5" cx="1254.67" cy="384.97" fill="#8b9ad9"></circle><circle r="5" cx="1260.07" cy="488.86" fill="#8b9ad9"></circle><circle r="5" cx="1260.68" cy="662.36" fill="#8b9ad9"></circle><circle r="5" cx="1449.33" cy="-82.16" fill="#8b9ad9"></circle><circle r="5" cx="1403.43" cy="213.29" fill="#8b9ad9"></circle><circle r="5" cx="1412.16" cy="339.18" fill="#8b9ad9"></circle><circle r="5" cx="1420.31" cy="494.18" fill="#8b9ad9"></circle><circle r="5" cx="1557.94" cy="-50.18" fill="#8b9ad9"></circle><circle r="5" cx="1543.84" cy="103.73" fill="#8b9ad9"></circle><circle r="5" cx="1554.41" cy="206.69" fill="#8b9ad9"></circle><circle r="5" cx="1599.7" cy="407.89" fill="#8b9ad9"></circle></g><defs><mask id="SvgjsMask1000"><rect width="1440" height="560" fill="#ffffff"></rect></mask><radialGradient id="SvgjsRadialGradient1001"><stop stop-color="#ffffff" offset="0.1"></stop><stop stop-color="#1735b3" offset="0.2"></stop><stop stop-color="rgba(23, 53, 179, 0)" offset="1"></stop></radialGradient></defs></svg>