<?xml version="1.0" encoding="utf-8"?>
<!-- Generator: Adobe Illustrator 27.5.0, SVG Export Plug-In . SVG Version: 6.00 Build 0)  -->
<svg version="1.1" id="Layer_1" xmlns="http://www.w3.org/2000/svg" xmlns:xlink="http://www.w3.org/1999/xlink" x="0px" y="0px"
	 viewBox="0 0 3000 2000" style="enable-background:new 0 0 3000 2000;" xml:space="preserve">
<rect style="fill:#FFFFFF;" width="3000" height="2000"/>
<g>
	<g>
		<g>
			<path style="fill:#272A45;" d="M2909.389,870.81c0,0-125.907-24.711-150.073-40.334c-11.172-7.223-15.154-18.475-23.592-43.571
				c-2.783-8.267-5.354-16.822-7.715-25.225c-0.008-0.019-0.004-0.034-0.004-0.034c-9.394-33.549-15.124-64.572-15.124-64.572
				s-46.26-82.396,8.219-95.981c0,0,27.789,6.18,39.275,33.746c8.846,21.228,13.977,46.298,16.258,59.557
				c1.672,9.712,22.116,80.229,24.325,82.971c2.212,2.742,31.287,26.946,50.654,35.788c30.032,13.717,59.156,20.324,59.156,20.324
				L2909.389,870.81z"/>
		</g>
		<g>
			<rect x="2540.283" y="432.188" style="fill:#292929;" width="2.637" height="65.495"/>
		</g>
		<path style="fill:#292929;" d="M2541.642,495.61v-0.011c0,0-0.026,0.004-0.042,0.007c-0.011-0.003-0.026-0.007-0.026-0.007
			l-0.015,0.011c-6.21,0.291-5.491,32.245-5.491,32.245h5.491h0.083h5.491C2547.133,527.854,2547.852,495.901,2541.642,495.61z"/>
		<g>
			<path style="fill:#47413E;" d="M2779.438,1650.015c0,0,21.92,23.021,44.177,27.846c22.256,4.822,37.826,10.976,37.992,24.186
				c0.167,13.21-64.05,21.916-89.517,8.597c-38.012-19.875-41.877-13.884-46.09-23.819c-4.218-9.935,5.06-36.503,4.787-39.66
				C2730.448,1643.256,2779.438,1650.015,2779.438,1650.015z"/>
		</g>
		<g>
			<path style="fill:#2F6B8C;" d="M2776.973,1639.002c0,0,2.894,10.785,2.466,11.013c-0.431,0.23-50.155,5.801-48.65-2.852
				c1.219-7.019,2.962-14.647,2.962-14.647L2776.973,1639.002z"/>
		</g>
		<g>
			<path style="fill:#47413E;" d="M2531.794,1656.021c0,0,16.125,22.423,37.697,27.597c21.27,5.098,35.051,14.802,36.094,27.642
				c1.045,12.839-50.147,29.653-86.112,7.102c-23.634-14.821-32.445-13.978-37.207-23.391c-4.761-9.417,2.492-35.803,2.016-38.862
				C2483.691,1652.329,2531.794,1656.021,2531.794,1656.021z"/>
		</g>
		<g>
			<path style="fill:#2F6B8C;" d="M2531.132,1644.932c0,0,1.063,10.839,0.662,11.089c-0.405,0.245-47.792,8.63-47.513,0.087
				c0.228-6.785,3.003-15.227,3.003-15.227L2531.132,1644.932z"/>
		</g>
		<g>
			<path style="fill:#946646;" d="M2726.821,991.308c0,0,23.028,167.262,32.43,223.805c10.998,66.111,14.727,120.736,17.79,154.955
				c3.857,43.038,3.839,263.295,6.535,275.881c2.7,12.582-58.676,6.319-58.676,6.319s-39.805-287.416-51.29-333.252
				c-10.699-42.679-41.843-227.03-51.604-215.375c-9.761,11.656-39.642,220.488-46.873,254.146
				c-7.227,33.663-37.04,299.144-37.04,299.144s-30.013,12.81-62.549,3.007c0,0,4.308-239.79,8.91-302.898
				c1.759-24.05-15.21-287.923,25.457-394.334C2531.404,906.474,2726.821,991.308,2726.821,991.308z"/>
		</g>
		<path style="fill:#272A45;" d="M2659.262,590.164c0,0,60.93,12.598,68.161,19.004c7.847,6.815,21.692,73.55,22.517,92.138
			c0.825,18.592-7.344,96.246-15.195,125.162c-7.848,28.917-6.406,171.346-1.448,211.415c0,0-122.685,34.846-243.308,19.147
			c0,0,20.222-149.846,15.393-189.469c-6.188-50.764-21.069-167.719-21.069-167.719s10.681-81.469,21.421-90.557
			s84.748-19.121,84.748-19.121H2659.262z"/>
		<path style="fill:#8E4F3A;" d="M2634.07,401.758c0,0,73.297-27.124,68.714,70.279c-4.58,97.403-21.758,107.3-69.973,93.696
			c-48.216-13.6-52.254-75.074-58.532-104.648C2567.998,431.514,2610.104,406.009,2634.07,401.758z"/>
		<path style="fill:#8E4F3A;" d="M2668.849,603.352c0,0-15.085,9.973-72.275-15.222c0,0,1.615-39.207-9.603-75.831
			c-11.221-36.624,76.746,48.832,76.746,48.832c-0.923,0.65-1.101,4.311-0.571,9.417c0.446,4.327,1.393,9.689,2.821,15.131
			C2669.182,597.925,2668.849,592.664,2668.849,603.352z"/>
		<path style="fill:#163342;" d="M2584.464,509.395c0,0-0.208-26.02,10.612-28.414c10.819-2.394,16.395,12.646,16.395,12.646
			l8.713-0.469c0,0-7.787-26.367,2.526-32.411c10.317-6.047,72.026-0.738,79.771-9.614c7.741-8.876-3.487-61.599-20.324-66.773
			c-16.837-5.177-62.828-15.672-92.032,10.336c0,0-25.402,0.484-26.42,21.171C2562.684,436.56,2575.663,495.289,2584.464,509.395z"
			/>
		<path style="fill:#613628;" d="M2665.967,585.679c-56.811-9.549-65.302-41.858-65.431-42.361
			c22.087,28.478,62.609,27.229,62.609,27.229C2663.592,574.874,2664.538,580.237,2665.967,585.679z"/>
		<path style="fill:#8E4F3A;" d="M2607.325,469.935c-3.237-8.585-21.519-7.503-19.646,6.104
			c1.872,13.607,16.98,34.566,23.047,30.633C2616.791,502.743,2611.788,481.768,2607.325,469.935z"/>
		<path style="fill:#272A45;" d="M2728.198,608.556c0,0,34.627,46.351,21.799,166.195c-23.176,216.558,37.52,564.193,37.52,564.193
			l-62.616,10.479c0,0-59.837-435.284-44.596-596.569c6.943-73.497,27.551-97.951-4.963-159.183
			C2675.342,593.67,2706.997,594.729,2728.198,608.556z"/>
		<path style="fill:#272A45;" d="M2573.647,592.664c0,0,99.108,100.11,106.868,176.002c7.761,75.895,44.385,580.757,44.385,580.757
			l-259.929-4.625c0,0,21.688-271.316,26.979-305.259c5.291-33.938,16.243-228.819-7.64-319.247
			c-11.455-43.375-0.442-97.202,22.899-113.014L2573.647,592.664z"/>
		<path style="fill:#272A45;" d="M2540.151,605.632c0,0,38.171,10.51,17.17,80.569c-16.447,54.871-18.668,66.652-18.668,66.652
			l-88.075-21.999c0,0,25.822-120.529,67.964-127.011C2518.542,603.843,2531.96,601.933,2540.151,605.632z"/>
		<polygon style="fill:#D49264;" points="2939.5,709.131 2903.436,926.813 2763.721,903.667 2794.328,685.082 		"/>
		<g>
			<g>
				<g>
					<g>
						<g>
							<path style="fill:#8E4F3A;" d="M2447.307,1118.558c0,0-2.52-5.404-2.467-8.305c0,0,0.5-5.273,0.628-9.039
								c0.038-1.194,0.046-2.238-0.022-2.912c-0.279-2.814-1.729-8.913-0.495-15.861c1.226-6.943,14.238-35.526,14.238-35.526
								l17.446,2.644l16.689,0.147c0,0,15.49,40.322,15.09,46.926c-0.042,0.643-0.106,1.278-0.212,1.872
								c-0.882,5.559-3.869,9.321-4.663,12.188c-0.299,1.048-3.96,11.289-7.016,12.397c-4.239,1.543-7.802,0.893-10.282-0.953
								c0,0-8.435,2.654-13.956,0.435c0,0-7.699,2.7-13.784-2.016C2458.501,1120.555,2450.381,1122.415,2447.307,1118.558z"/>
						</g>
					</g>
				</g>
			</g>
		</g>
		<path style="fill:#272A45;" d="M2544.717,610.326c7.99,3.094,12.782,3.835,7.654,44.751c-2.062,16.432-10.685,67.28-16.081,76.788
			c-5.4,9.507-30.989,82.854-32.694,92.074c-2.488,13.426-2.916,114.522-2.916,119.515c0,11.436,0.265,108.282,0.265,108.282
			l-64.681,9.36c0,0-7.371-111.951-8.665-125.294c-2.979-30.75-3.313-94.563,2.284-128.834
			c6.392-39.112,30.319-115.718,33.72-121.875C2467.002,678.937,2491.887,589.869,2544.717,610.326z"/>
		<polygon style="fill:#272A45;" points="2704.978,431.836 2769.984,405.537 2649.974,352.651 2496.543,431.836 2568.478,458.423 		
			"/>
		<path style="fill:#998D88;" d="M2573.647,592.664c0,0,58.793,39.593,101.694,49.868c1.786,0.427,0-48.862,0-48.862
			S2639.29,579.242,2573.647,592.664z"/>
		<path style="fill:#8E4F3A;" d="M2613.826,586.174c0,0,24.128,11.543,42.248,13.214c0,0,9.375-3.502,9.893-13.709L2613.826,586.174
			z"/>
		<path style="fill:#BF2E2E;" d="M2589.937,589.79l85.405,52.742l-168.131-35.254
			C2507.211,607.278,2533.885,596.639,2589.937,589.79z"/>
		<path style="fill:#BF2E2E;" d="M2675.342,642.532V593.67c0,0,28.263,0.567,45.758,7.424L2675.342,642.532z"/>
		<path style="fill:#EAD8CF;" d="M2596.592,577.291c0,0,29.896,18.032,59.482,22.098l-10.893,29.854l-55.245-39.453
			L2596.592,577.291z"/>
		<path style="fill:#EAD8CF;" d="M2665.967,585.679c0,0-3.15,10.336-9.893,13.709l21.095,22.525l-1.827-28.243L2665.967,585.679z"/>
		<path style="fill:#51578F;" d="M2704.746,444.331c0,0-62.93-7.212-133.356,25.112l-6.077-21.716c0,0,79.435-30.527,140.883-23.129
			L2704.746,444.331z"/>
		<g>
			<g>
				<path style="fill:#8E4F3A;" d="M2929.962,779.251c0,0-26.031-5.862-33.065-0.416c-7.034,5.442,2.246,8.071,2.246,8.071
					s-9.137-2.75-11.996,4.16c-2.859,6.913,8.169,9.42,8.169,9.42s-7.462-0.261-7.662,7.56c-0.196,7.817,9.391,7.855,9.391,7.855
					s-10.612,5.389-2.999,11.777c12.858,10.778,31.802,6.629,31.802,6.629s4.451-1.43,4.111-8.975c0,0,11.209-2.772,6.308-14.934
					c0,0,8.789-9.705-0.487-15.73C2935.778,794.669,2944.51,783.782,2929.962,779.251z"/>
			</g>
		</g>
		<path style="fill:#181A2B;" d="M2522.456,767.066c0,0-18.943,54.073-19.435,61.864c-0.488,7.787-2.137,200.183-2.137,200.183
			S2521.174,830.541,2522.456,767.066z"/>
	</g>
	<g>
		<g>
			<g>
				<path style="fill:#424773;" d="M1055.969,1436.418c0,0-13.508,24.812-15.443,28.574c-1.934,3.762-41.154-17.919-41.154-17.919
					l8.226-32.457C1007.598,1414.616,1052.148,1430.792,1055.969,1436.418z"/>
			</g>
		</g>
		<g>
			<g>
				<path style="fill:#8B92DB;" d="M1042.204,1461.823c0,0,7.297,20.683,17.472,32.294c10.171,11.613,54.919,34.662,59.799,44.582
					c3.525,7.164,4.87,31.229-68.8,1.671c-52.341-21-79.523-25.968-82.035-36.563c-2.512-10.595,31.466-59.636,31.466-59.636
					S1010.117,1453.365,1042.204,1461.823z"/>
			</g>
		</g>
		<g>
			<path style="fill:#8B92DB;" d="M659.465,1570.359c0,0-10.922,38.423-13.949,51.401c-3.029,12.98,1.51,46.94-1.517,59.919
				c-3.029,12.979-10.551,16.707-16.594,14.967c-6.045-1.74-21.445-6.858-34.568-22.324c-13.121-15.467-7.977-44.012-9.558-62.244
				c-1.481-17.069-9.06-26.081,5.685-40.274c18.99-18.279,21.531-28.751,21.531-28.751L659.465,1570.359z"/>
		</g>
		<g>
			<path style="fill:#E3E3E3;" d="M926.85,1033.645c0,0-6.672,74.975-13.322,119.871c-6.127,41.385-40.727,172.098-52.826,189.282
				c-22.023,31.276-72.226,83.49-82.63,97.225C761.119,1462.4,660.375,1596.1,660.375,1596.1s-28.26-6.258-65.263-41.367
				c0,0,105.1-118.983,120.774-154.187c11.907-26.743,63.39-103.797,63.141-116.192c-0.418-20.692,14.318-250.913,35.246-291.97
				C835.201,951.329,926.85,1033.645,926.85,1033.645z"/>
		</g>
		<g>
			<path style="fill:#E3E3E3;" d="M990.422,989.041c0,0,130.881,118.641,146.927,145.576c16.046,26.936,26.363,30.375,19.486,59.03
				c-6.881,28.653-106.577,259.816-108.317,267.062c-1.912,7.968-52.736-15.962-57.321-16.536
				c-4.584-0.571,21.379-69.733,31.123-97.816c9.739-28.081,39.667-124.056,47.691-138.383
				c8.021-14.326-161.327-102.011-179.091-123.215C873.152,1063.554,898.726,965.162,990.422,989.041z"/>
		</g>
		<path style="fill:#D88A51;" d="M999.372,1000.266c0,0-84.254,92.951-222.671,142.973l21.923-82.516L999.372,1000.266z"/>
		<g>
			<path style="fill:#EEA886;" d="M1112.124,523.413c13.289-28.19,49.508-159.885,49.508-159.885l-28.724-3.563
				c0,0-19.069,32.596-41.169,92.213c-6.595,17.789-33.514,50.837-34.83,53.862c-1.32,3.025-52.908,66.952-73.473,78.563
				c-9.611,5.429-30.439,19.356-43.834,36.235c-13.399,16.865-3.835,36.989-3.835,36.989c36.271,37.581,89.427-22.04,89.427-22.04
				S1087.969,574.663,1112.124,523.413z"/>
		</g>
		<path style="fill:#323657;" d="M1007.664,800.296c0,0-2.479,18.638-14.989,25.052l-10.777-20.422L1007.664,800.296z"/>
		<path style="fill:#323657;" d="M820.935,883.707c-1.764,31.821-8.712,65.377-23.14,99.784c0,0-45.255,18.701-67.103-9.655
			c-8.606-11.163-16.108-48.691-19.277-96.554c-4.892-73.703,0.521-171.92,28.084-236.136
			C739.5,641.146,828.616,746.163,820.935,883.707z"/>
		<path style="fill:#979FF0;" d="M820.935,883.707c-1.764,31.821-8.712,65.377-23.14,99.784c0,0-45.255,18.701-67.103-9.655
			c-8.606-11.163-16.108-48.691-19.277-96.554L820.935,883.707z"/>
		<path style="fill:#EEA886;" d="M1193.932,285.601c-2.461-0.152-14.953,21.76-20.163,31.104c-0.168-0.13-0.336-0.258-0.508-0.384
			c4.764-12.09,17.493-44.421,18.689-47.565c1.473-3.877-2.885-6.639-5.275-5.345c-2.234,1.208-18.236,35.091-24.012,47.439
			c-0.099-0.037-0.193-0.073-0.292-0.109c5.173-13.271,19.87-51.099,20.133-53.177c0.322-2.524-4.763-4.255-6.211-2.749
			c-2.069,2.161-19.95,40.575-25.642,52.864c-0.274-0.044-0.548-0.086-0.815-0.126c2.515-10.616,9.388-39.626,10.221-43.368
			c1.021-4.592-1.557-5.638-5.114-3.329c-3.195,2.075-13.947,41.341-16.104,49.32c-2.958,6.962-4.815,25.151-8.146,21.599
			c-3.769-4.022-17.666-25.758-23.244-23.484c-5.583,2.274,5.688,14.596,7.703,19.265c1.51,3.492,6.383,14.838,12.818,20.13
			c7.568,6.222,4.325,22.5,4.325,22.5l26.166,3.213c0,0,2.318-8.16,3.875-11.591c1.236-2.714,13.933-17.347,17.095-33.449
			c0.051-0.26,0.088-0.518,0.117-0.773h0.003c0,0,10.189-22.639,15.464-31.608C1200.293,287.01,1195.84,285.72,1193.932,285.601z"/>
		<g>
			<path style="fill:#EEA886;" d="M545.546,1025.53c0,0-23.548,44.245-22.52,48.358c1.027,4.116,3.626,5.107,6.01,1.051
				c2.382-4.055,24.054-42.163,24.054-42.163s-18.61,56.524-18.559,60.088c0.029,2.088,4.932,4.288,6.419,2.224
				c1.487-2.066,23.321-57.184,23.321-57.184s-17.274,52.802-16.283,55.747c0.868,2.577,5.937,3.526,7.502-0.314
				c1.566-3.841,20.531-52.072,20.531-52.072s-10.017,39.108-7.599,41.098c1.479,1.216,5.615,3.307,7.865-6.854
				c2.252-10.159,10.229-33.669,10.229-33.669L545.546,1025.53z"/>
		</g>
		<g>
			<g>
				<path style="fill:#EEA886;" d="M580.975,978.457c0,0-8.721,14.121-18.498,13.518c-8.313-0.516-19.616,4.464-23.099,5.99
					c-4.657,2.042-21.303,3.376-18.771,8.844c2.532,5.467,27.518-0.964,33.017-1.337c5.501-0.374-9.392,18.375-9.293,23.74
					c0.097,5.365,33.961,25.915,42.624,11.979c8.664-13.937,8.259-33.945,10.293-36.126c2.035-2.181,6.725-9.917,6.725-9.917
					L580.975,978.457z"/>
			</g>
		</g>
		<path style="fill:#D44040;" d="M896.813,599.386c0,0,48.17,9.452,69.678-3.649c8.196,5.709,25.649,82.871,28.344,100.546
			c2.694,17.676,2.844,92.707-1.693,121.138c-4.537,28.432,21.862,158.818,10.028,179.691c0,0-98.479,85.895-215.334,83.255
			c0,0-0.95-162.824-9.622-200.185C767.102,832.316,740.9,722.1,740.9,722.1s-12.204-73.853-0.089-79.854
			c26.136-12.947,95.899-38.379,95.899-38.379L896.813,599.386z"/>
		<path style="fill:#EEA987;" d="M909.923,612.886c0,0-15.991,9.193-73.213-9.019c0,0-2.472-37.627-16.943-71.465
			c-14.472-33.841,78.329,38.789,78.329,38.789c-0.815,0.717-0.61,4.232,0.417,9.056c0.87,4.089,2.325,9.116,4.248,14.17
			C907.082,605.786,906.146,603.784,909.923,612.886z"/>
		<path style="fill:#A77860;" d="M902.761,594.416c-55.257-3.303-66.68-33.301-66.853-33.772
			c24.019,24.948,62.489,19.047,62.489,19.047C899.266,583.781,900.838,589.362,902.761,594.416z"/>
		<g>
			<path style="fill:#EEA886;" d="M717.128,868.933c-21.062,22.974-116.515,131.519-116.515,131.519l-21.718-19.049
				c0,0,27.974-50.998,67.097-107.12c10.851-15.565,25.216-52.181,27.34-54.709c2.123-2.526,34.025-77.417,37.676-100.749
				c1.449-9.258,10.229-36.596,15.929-59.878c6.376-26.058,66.68-38.834,66.68-38.834c49.793,15.766-18.193,113.339-18.193,113.339
				S746.647,836.734,717.128,868.933z"/>
		</g>
		<path style="fill:#D44040;" d="M777.558,744.558l-74.52-13.147c0,0,1.541-77.088,53.449-102.272
			c51.906-25.182,80.223-25.273,80.223-25.273L777.558,744.558z"/>
		<g>
			<path style="fill:#323657;" d="M774.759,867.78l-11.52-11.399c43.209-50.724,57.185-104.219,41.544-159
				c-11.703-40.984-40.619-71.491-40.864-71.752l15.815-6.816c1.115,1.177,27.849,29.362,40.628,74.121
				c7.543,26.421,8.755,53.124,3.599,79.362C817.557,804.888,800.464,837.606,774.759,867.78z"/>
		</g>
		<path style="fill:#D44040;" d="M997.277,573.729l34.764,67.417c0,0-27.5,22.085-37.261,79.331
			c-8.124,47.625-50.689-118.37-50.689-118.37S963.427,600.361,997.277,573.729z"/>
		<g>
			<path style="fill:#323657;" d="M1007.664,800.296l-13.249,6.783c6.719-85.866-4.764-127.847-14.599-157.271
				c-10.583-31.673-27.434-49.605-27.572-49.742l15.523-6.785C970.26,595.721,1024.638,643.334,1007.664,800.296z"/>
		</g>
		<path style="fill:#EEA987;" d="M916.482,601.991c0,0,54.484,72.223,8.848,89.663c-59.539,22.754-108.988-84.658-108.988-84.658
			S850.683,592.917,916.482,601.991z"/>
		<g>
			<path style="fill:#EEA886;" d="M883.261,418.147c0,0,46.211,5.064,49.497,88.778c3.627,92.341-64.998,79.224-84.21,65.276
				c-19.213-13.946-38.248-47.958-43.683-75.078C799.43,470.004,792.07,395.664,883.261,418.147z"/>
		</g>
		<g>
			<path style="fill:#323657;" d="M929.68,471.188c0,0-6.672-29.914-42.983-17.299c-36.31,12.616-67.332,47.983-59.675,94.55
				c0,0-66.13-75.725-31.108-117.771C830.936,388.622,915.674,389.234,929.68,471.188z"/>
		</g>
		<g>
			<path style="fill:#E8734D;" d="M877.532,457.616c0,0,46.81,31.713,58.268,30.757C935.8,488.373,932.426,431.363,877.532,457.616z
				"/>
		</g>
		<path style="fill:#EEA886;" d="M830.927,506.294c-3.956-7.738-15.313-17.145-17.62-4.199
			c-2.305,12.947,14.578,38.683,19.065,33.899C836.862,531.211,838.213,520.542,830.927,506.294z"/>
		<path style="fill:#323657;" d="M763.919,625.628c0,0,6.771-5.669,15.815-6.816C779.735,618.812,770.581,625.716,763.919,625.628z"
			/>
	</g>
	<g>
		<g>
			<path style="fill:#163342;" d="M449.528,1639.034c0,0,7.05,16.99,12.991,23.726c5.941,6.733,28.696,18.772,28.819,38.772
				c0.133,21.688-38.355,15.67-53.41,14.877c-15.052-0.792-16.193-12.379-22.531-24.658c-6.338-12.281-12.724-10.201-13.915-20.105
				c-1.188-9.902,4.855-32.074,4.855-32.074L449.528,1639.034z"/>
		</g>
		<path style="fill:#EEA886;" d="M335.211,406.361c0,0,69.353-25.664,65.018,66.502c-4.335,92.164-20.589,101.531-66.209,88.659
			c-45.625-12.872-49.447-71.041-55.389-99.022C272.69,434.517,312.532,410.384,335.211,406.361z"/>
		<path style="fill:#E8734D;" d="M288.272,508.211c0,0-0.198-24.621,10.042-26.887c10.237-2.265,15.51,11.967,15.51,11.967
			l8.245-0.444c0,0-7.367-24.949,2.393-30.668c9.76-5.722,68.152-0.695,75.479-9.096c7.328-8.4-3.299-58.289-19.228-63.185
			c-15.933-4.897-59.449-14.828-87.084,9.782c0,0-24.04,0.458-25.003,20.035C267.662,439.289,279.941,494.862,288.272,508.211z"/>
		<path style="fill:#EEA886;" d="M309.901,470.871c-3.061-8.121-20.358-7.099-18.589,5.778c1.772,12.875,16.07,32.705,21.809,28.986
			C318.86,501.917,314.127,482.071,309.901,470.871z"/>
		<g>
			<path style="fill:#163342;" d="M174.597,1639.034c0,0-7.045,16.99-12.99,23.726c-5.942,6.733-28.696,18.772-28.819,38.772
				c-0.133,21.688,38.358,15.67,53.41,14.877c15.052-0.792,16.192-12.379,22.531-24.658c6.338-12.281,12.724-10.201,13.914-20.105
				c1.188-9.902-4.854-32.074-4.854-32.074L174.597,1639.034z"/>
		</g>
		<g>
			<path style="fill:#2F6B8C;" d="M173.944,1632.761l-1.394,10.93c0,0,24.014,8.078,46.397,0.453l-1.296-14.265L173.944,1632.761z"
				/>
		</g>
		<g>
			<path style="fill:#2F6B8C;" d="M449.85,1632.761l1.343,10.087c0,0-23.581,8.712-45.964,1.087l0.91-14.056L449.85,1632.761z"/>
		</g>
		<g>
			<path style="fill:#1D3B54;" d="M440.338,1359.019c0,26.74,20.113,275.912,20.113,275.912c-2.675,8.913-57.287,8.56-66.199,4.104
				c-8.916-4.458-34.175-252.16-35.822-279.12c-1.646-26.965-49.901-232.494-57.712-231.602
				c-7.815,0.892-33.807,223.218-40.044,243.718c-6.241,20.501-32.28,267.005-32.28,267.005
				c-25.793,5.205-63.354-1.179-63.354-1.179s4.642-254.73,5.761-262.264c1.653-11.15-0.076-41.203,4.458-107.896
				c4.057-59.66,18.715-189.553,28.01-259.894c0.332-2.501,0.646-4.909,0.956-7.208c1.819-13.691,3.184-23.75,3.837-28.575
				c0.286-2.087,0.441-3.198,0.441-3.198c2.501-1.151,5.122-2.214,7.851-3.196c65.278-23.453,191.183,1.373,191.183,1.373
				s0.072,0.617,0.213,1.783c0.169,1.413,0.43,3.629,0.769,6.499c0.726,6.205,1.805,15.438,3.046,26.157
				c0.007,0.078,0.018,0.155,0.025,0.233c0.036,0.32,0.076,0.652,0.112,0.979c4.393,38.147,10.601,94.003,10.02,99.814
				C420.829,1111.376,440.338,1332.279,440.338,1359.019z"/>
		</g>
		<g>
			<path style="fill:#EAD8CF;" d="M158.571,939.652c0,0-98.382-121.806-98.602-148.246c-0.101-12.222,17.253-52.97,32.251-72.122
				c4.938-6.312,10.205-12.61,15.463-18.665c0.007-0.015,0.022-0.02,0.022-0.02c21-24.159,41.918-44.228,41.918-44.228
				s53.905-64.111,91.848-29.168c0,0-1.112,23.487-12.518,41.26c-11.402,17.788-25.884,31.298-32.933,36.996
				c-7.043,5.69-70.188,72.021-71.177,75.102c-0.989,3.082,13.673,40.306,22.986,56.414c13.279,22.976,40.686,76.304,40.686,76.304
				L158.571,939.652z"/>
		</g>
		<g>
			<path style="fill:#EAD8CF;" d="M458.768,939.95c0,0,109.146-112.269,111.788-138.577c1.22-12.162-12.323-54.329-25.501-74.777
				c-4.339-6.737-9.006-13.493-13.684-20.004c-0.007-0.016-0.022-0.022-0.022-0.022c-18.693-25.983-37.683-47.886-37.683-47.886
				s-47.797-68.785-88.787-37.471c0,0-1.047,23.491,8.681,42.235c9.724,18.757,22.906,33.539,29.403,39.86
				c6.486,6.313,63.282,78.156,63.986,81.314c0.7,3.16-17.312,38.882-28.061,54.067c-15.333,21.663-46.35,73.483-46.35,73.483
				L458.768,939.95z"/>
		</g>
		<g>
			<path style="fill:#EEA987;" d="M363.993,585.15c0,0,11.298,2.54-36.597,47.449c0,0-33.223-36.868-32.067-43.085
				C296.488,583.299,363.993,585.15,363.993,585.15z"/>
		</g>
		<g>
			<path style="fill:#EAD8CF;" d="M461.368,633.302L427.51,754.775c-10.865,36.777-17.004,73.747-18.838,106.113
				c-1.415,24.998-0.126,104.519-0.126,104.519s-46.971,17.241-123.634,12.403c0,0-83.38,20.917-76.656-29.636
				c17.791-133.824,0.39-188.999-1.939-202.432c0,0-11.193-64.997-19.206-119.454c23.206-8.64,122.33-41.966,122.33-41.966
				l53.768,0.586C363.21,584.909,438.826,607.376,461.368,633.302z"/>
		</g>
		<path style="fill:#385369;" d="M420.822,780.105c0,0-31.952-14.933-43.004-65.396l-112.758-1.228c0,0-33.738,67.062-51.945,70.641
			c0,0,3.548,73.629,1.274,102.071c-2.27,28.439-9.1,82.232-9.1,82.232s6.436,49.104,205.22,15.694c0,0-2.151-118.178-1.83-123.226
			C409,855.844,419.995,783.07,420.822,780.105z"/>
		<path style="fill:#385369;" d="M377.598,714.708c0,0,13.251-68.478,42.25-108.369c0,0-2.787-3.324-10.284-4.568
			c0,0-31.471,44.879-44.025,112.805C352.98,782.504,377.598,714.708,377.598,714.708z"/>
		<path style="fill:#385369;" d="M266.196,713.493c0,0-7.667-61.844-35.788-102.359c0,0,4.757-3.122,12.284-4.2
			c0,0,24.494,38.506,35.564,106.69C289.327,781.809,266.196,713.493,266.196,713.493z"/>
		<g>
			<path style="fill:#EEA987;" d="M296.842,589.085c0,0,11.86-11.713,0.714-57.989c-2.938-12.225,65.112,14.736,65.112,14.736
				s-0.544,10.122-0.483,20.266c0.022,4.548,0.173,9.085,0.545,12.738c0.278,2.743,0.686,4.976,1.26,6.31
				C367.043,592.182,321.776,606.934,296.842,589.085z"/>
		</g>
		<path style="fill:#385369;" d="M461.451,625.854c-28.302,8.204-29.537,115.267-29.537,115.267s-7.872,26.56-11.219,50.418
			c-3.108,22.197-6.501,169.468-6.999,192.074c0,0-27.35,17.573-102.009,16.228c0,0-77.966-5.383-111.112-18.275
			c2.479-21.558,6.147-54.733,8.493-77.368c1.769-17.084,3.288-32.768,3.902-41.748c1.887-27.704-8.248-126.08-8.248-126.08
			c11.76-99.502-8.775-115.409-8.775-115.409c13.608-8.943,95.277-30.497,95.277-30.497c16.452,71.5,37.543,85.687,37.543,85.687
			c30.497-30.308,45.48-87.706,45.48-87.706C425.843,598.565,461.451,625.854,461.451,625.854z"/>
		<path style="fill:#EEA886;" d="M439.952,912.346c0,0-3.559,3.876-7.768,4.271c-7.273,0.684-16.521-6.69-23.227,1.562
			c-6.703,8.253,13.059,38.384,19.26,41.515c6.201,3.13,18.492-4.907,30.396-23.98C470.521,916.643,439.952,912.346,439.952,912.346
			z"/>
		<path style="fill:#EEA886;" d="M411.61,915.753c0,0-14.066,6.771-28.779,16.342c-12.908,8.396-26.635,20.257-24.343,23.767
			c3.133,4.799,12.835-5.928,26.194-13.337c12.301-6.82,11.034-3.279,11.034-3.279s0.307-1.031-11.629,9.179
			c-12.832,10.977-26.473,24.427-23.697,27.606c1.74,1.996,1.765,2.411,7.071-0.756c-2.653,2.519-2.346,3.66-1.408,4.952
			c4.855,6.685,26.22-6.288,34.702-11.442c-6.494,4.003-10.825,7.681-5.353,9.843c6.256,2.473,35.623-17.326,46.827-23.336
			C454.448,948.736,411.61,915.753,411.61,915.753z"/>
		<path style="fill:#EEA886;" d="M179.185,913.947c0,0,3.566,3.887,7.79,4.284c7.295,0.685,16.571-6.712,23.296,1.565
			c6.725,8.277-13.099,38.497-19.318,41.638c-6.219,3.141-18.546-4.921-30.486-24.05
			C148.525,918.255,179.185,913.947,179.185,913.947z"/>
		<path style="fill:#EEA886;" d="M207.61,917.363c0,0,14.109,6.792,28.865,16.389c12.947,8.423,26.711,20.318,24.415,23.839
			c-3.141,4.813-12.875-5.947-26.274-13.378c-12.337-6.84-11.067-3.29-11.067-3.29s-0.307-1.032,11.666,9.208
			c12.872,11.009,26.548,24.499,23.769,27.687c-1.751,2.002-1.772,2.418-7.096-0.758c2.664,2.526,2.353,3.671,1.415,4.966
			c-4.873,6.707-26.299-6.306-34.807-11.477c6.512,4.014,10.854,7.705,5.371,9.874c-6.277,2.48-35.731-17.378-46.967-23.406
			C164.643,950.443,207.61,917.363,207.61,917.363z"/>
		<path style="fill:#EAD8CF;" d="M188.516,913.279c0,0-7.259,13.239-29.944,26.373c0,0-46-56.363-66.95-89.201h63.748
			C155.369,850.452,183.535,901.828,188.516,913.279z"/>
		<path style="fill:#EAD8CF;" d="M432.539,912.173c0,0,3.92,15.687,26.23,27.777c0,0,61.258-66.513,68.242-74.824l-53.645-18.371
			C473.366,846.755,445.035,890.066,432.539,912.173z"/>
		<path style="fill:#A77860;" d="M362.73,578.835c-40.488-0.523-53.504-31.307-53.897-32.268
			c21.332,21.61,53.353,19.53,53.353,19.53C362.207,570.646,362.358,575.183,362.73,578.835z"/>
		<path style="fill:#D1C1B9;" d="M362.73,578.835c0,0-7.717,9.743-28.808,18.551l9.475,20.688l27.068-30.879L362.73,578.835z"/>
		<path style="fill:#D1C1B9;" d="M301.029,579.179c0,0,7.804,12.38,32.893,18.208l-11.121,23.536l-28.75-31.6L301.029,579.179z"/>
	</g>
	<g>
		<g>
			<path style="fill:#323657;" d="M2213.005,583.726l23.768,193.13l18.524,150.498c0,0,96.407,25.643,93.069-47.055
				c-1.578-34.533-6.983-69.882-14.408-103.442c-19.007-85.95-51.255-160.154-66.522-178.844
				C2246.193,572.02,2213.005,583.726,2213.005,583.726z"/>
		</g>
		<g>
			<path style="fill:#DBDFF0;" d="M2236.772,776.855l18.524,150.498c0,0,100.039,25.948,96.7-46.75
				c-1.578-34.533-10.021-70.229-18.039-103.748H2236.772z"/>
		</g>
		<g>
			<g>
				<g>
					<g>
						<path style="fill:#273852;" d="M2004.26,1652.228c0,0-25.747,17.118-37.471,23.594c-11.721,6.478-58.391,10.626-62.78,15.261
							c-4.387,4.633-1.956,18.521,5.87,19.537c7.826,1.017,64.925,3.148,83.655-2.288c18.727-5.438,54.583,0.148,62.294-2.936
							c7.715-3.083,0.408-45.151-3.129-54.493C2049.158,1641.561,2004.26,1652.228,2004.26,1652.228z"/>
					</g>
				</g>
			</g>
		</g>
		<g>
			<polygon style="fill:#50558A;" points="2048.983,1639.631 2052.699,1650.902 2004.26,1652.228 2005.834,1636.749 			"/>
		</g>
		<g>
			<g>
				<g>
					<g>
						<path style="fill:#273852;" d="M2282.956,1628.746c0,0-19.735,23.797-29.102,33.371c-9.367,9.572-52.874,26.964-55.743,32.662
							c-2.869,5.7,3.449,18.301,11.238,17.026c7.785-1.274,63.09-15.65,79.464-26.241c16.373-10.591,52.32-15.549,58.82-20.72
							c6.501-5.171-12.59-43.363-18.663-51.294C2322.896,1605.622,2282.956,1628.746,2282.956,1628.746z"/>
					</g>
				</g>
			</g>
		</g>
		<g>
			<polygon style="fill:#50558A;" points="2322.17,1603.823 2328.971,1613.551 2282.956,1628.746 2280.016,1613.469 			"/>
		</g>
		<g>
			<g>
				<path style="fill:#EEA886;" d="M1920.305,661.777c0,0-42.602-23.209-46.598-22.252c-3.993,0.956-4.974,3.463-1.073,5.807
					c3.905,2.345,40.587,23.68,40.587,23.68s-54.539-18.545-57.988-18.529c-2.02,0.009-4.198,4.732-2.212,6.191
					c1.986,1.46,55.136,23.112,55.136,23.112s-50.951-17.218-53.81-16.286c-2.502,0.816-3.47,5.713,0.232,7.264
					c3.702,1.553,50.213,20.362,50.213,20.362s-37.765-10.063-39.71-7.742c-1.189,1.421-3.253,5.405,6.559,7.68
					c9.815,2.274,32.497,10.218,32.497,10.218L1920.305,661.777z"/>
			</g>
		</g>
		<g>
			<g>
				<g>
					<path style="fill:#EEA886;" d="M1965.541,696.516c0,0-13.588-8.576-12.91-18.034c0.572-8.043-4.138-19.03-5.584-22.415
						c-1.932-4.527-3.068-20.652-8.383-18.252c-5.317,2.399,0.675,26.646,0.982,31.971c0.311,5.326-17.695-9.264-22.891-9.22
						c-5.196,0.045-25.403,32.631-11.994,41.148c13.406,8.516,32.781,8.313,34.871,10.302c2.091,1.99,9.536,6.602,9.536,6.602
						L1965.541,696.516z"/>
				</g>
			</g>
		</g>
		<g>
			<g>
				<path style="fill:#EEA886;" d="M2111.011,803.872c-10.459,22.553-13.265,20.85-25.396,23.832
					c-26.235,6.456-141.902-112.627-141.902-112.627l16.983-22.279c0,0,30.384,22.655,55.871,39.809
					c15.773,10.616,54.894,39.479,57.695,37.722c2.802-1.757,36.5-63.237,40.36-71.643c3.86-8.421,31.044-68.729,40.822-75.943
					C2155.444,622.744,2178.626,658.085,2111.011,803.872z"/>
			</g>
		</g>
		<g>
			<g>
				<path style="fill:#6EA2E8;" d="M2139.738,1100.686c0,0,9.226,68.096,18.646,133.495v0.009
					c1.794,12.443,3.591,24.782,5.327,36.535v0.01c6.101,41.096,11.505,75.038,13.579,81.048
					c5.903,17.112,88.54,273.164,88.54,273.164s64.273-11.839,66.425-18.839c0,0-69.979-268.122-69.184-277.819
					c0.81-9.697-8.709-283.188-8.709-283.188S2142.982,1084.958,2139.738,1100.686z"/>
			</g>
		</g>
		<g>
			<g>
				<path style="fill:#6EA2E8;" d="M2087.364,1015.878c0,0-58.015,278.113-62.864,298.586
					c-4.848,20.47-32.632,332.605-32.632,332.605s26.597,2.045,72.494,0c0,0,50.146-315.781,55.321-325.592
					c20.082-38.072,97.415-229.556,107.112-255.953c9.697-26.396,26.563-50.384,26.563-50.384S2186.33,963.479,2087.364,1015.878z"
					/>
			</g>
		</g>
		<g>
			<g>
				<path style="fill:#D44040;" d="M2214.934,571.55c0,0-59.29,44.926-76.058,62.704c-16.771,17.777-53.383,88.924-50.507,111.527
					c11.02,86.666,7.408,163.143,3.76,222.02c-2.802,45.233-16.609,71.168-13.636,71.746
					c11.521,2.235,160.057,37.228,182.142,44.231c0,0-0.594-166.236-7.597-187.246
					C2246.035,875.521,2277.423,656.666,2214.934,571.55z"/>
			</g>
		</g>
		<g>
			<g>
				<g>
					<path style="fill:#EEA886;" d="M2214.934,571.548c0,0-109.334,118.947-103.164,105.544
						c19.489-42.332,40.856-55.958,40.671-64.711c-0.142-6.695-2.411-29.758-2.954-36.888c-0.943-12.42-1.16-18.462-1.16-18.462
						s55.254-74.768,52.422-49.014C2197.923,533.771,2214.934,571.548,2214.934,571.548z"/>
				</g>
			</g>
		</g>
		<g>
			<g>
				<g>
					<path style="fill:#EEA886;" d="M2113.984,430.099c0,0-15.554,34.78-15.908,42.977c-0.356,8.198,1.609,14.527,0.169,23.957
						c-1.49,9.746-10.051,30.154-9.144,35.852c1.099,6.887,15.617,3.569,17.408,14.91c1.79,11.339,11.919,32.774,17.146,33.295
						c13.42,1.34,65.278-18.742,68.741-29.453c3.463-10.712,23.181-70.433,29.187-81.753c6.005-11.317-89.384-75.614-98.491-57.7
						C2113.984,430.099,2113.984,430.099,2113.984,430.099z"/>
				</g>
			</g>
		</g>
		<g>
			<path style="fill:#FCCCA2;" d="M2244.74,458.419c7.344-29.618-26.775-33.883-26.775-33.883s-21.799-26.3-75.11-24.169
				c-53.312,2.132-46.413,71.786-46.413,71.786s36.945-4.862,52.896-0.524c0,0,1.427,29.719-0.435,37.043l20.116-1.431
				c0,0-1.78-26.386,7.89-27.46c9.667-1.076,11.896,55.998,29.635,68.881c0,0,0.25-4.026,2.569-7.932l0,0l0,0
				c3.696-6.221,9.448-16.631,14.482-28.837C2231.729,494.795,2240.978,473.587,2244.74,458.419z"/>
		</g>
		<g>
			<g>
				<g>
					<path style="fill:#EEA886;" d="M2163.419,485.914c0,0,7.819-19.975,25.255-6.619c12.682,9.714-1.137,43.427-13.636,43.041
						C2162.539,521.951,2157.788,503.391,2163.419,485.914z"/>
				</g>
			</g>
		</g>
		<g>
			<path style="fill:#C48A6F;" d="M2195.461,542.293c0,0-2.815,10.626-5.735,13.069c-2.923,2.441-16.633,13.175-40.239,20.131
				l1.838,21.045C2151.324,596.538,2197.146,579.789,2195.461,542.293z"/>
		</g>
		<g>
			<g>
				<path style="fill:#EEA987;" d="M2121.632,1039.547c0,0-7.37,14.319-12.722,19.694c-5.195,5.22,29.409,39.016,29.409,39.016
					s15.396-32.129,15.048-35.403C2153.021,1059.582,2121.632,1039.547,2121.632,1039.547z"/>
			</g>
		</g>
		<g>
			<path style="fill:#6EA2E8;" d="M2094.388,1053.142c0,0-15.136,68.964-14.653,90.172c0.485,21.211,80.461-31.944,76.83-53.102
				L2094.388,1053.142z"/>
		</g>
		<g>
			<path style="fill:#942D2D;" d="M2190.728,746.981l31.29,106.111l-67.362,124.605c0,0,45.961-106.131,44.612-133.016
				C2197.919,817.796,2190.728,746.981,2190.728,746.981z"/>
		</g>
		<g>
			<path style="fill:#547BB0;" d="M2158.385,1234.181v0.009c1.794,12.443,3.591,24.782,5.327,36.535
				c9.748-22.43,41.423-149.473,41.979-151.71L2158.385,1234.181z"/>
		</g>
		<g>
			<path style="fill:#323657;" d="M2257.613,843.607c2.263,0,3.655-0.074,3.969-0.094l-1.892-31.102
				c-0.323,0.017-38.395,1.757-64.026-22.31c-16.067-15.084-24.355-37.673-24.642-67.143
				c-0.917-95.057,64.873-104.862,67.675-105.233l-3.735-30.935c-2.563,0.298-25.693,3.465-48.965,22.013
				c-21.388,17.042-46.747,50.734-46.134,114.454c0.374,38.461,12.062,68.677,34.743,89.813
				C2204.814,841.222,2244.905,843.607,2257.613,843.607z"/>
		</g>
		<g>
			<g>
				<path style="fill:#EEA886;" d="M2234.966,648.978c0,0,44.393,197.99,47.528,218.881
					c2.968,19.794-131.669,202.738-131.669,202.738l-35.606-19.129c0,0,103.025-191.041,103.025-199.66
					c0-8.62-46.82-173.57-46.82-173.57s-3.679-29.083,19.367-41.192C2226.866,618.093,2234.966,648.978,2234.966,648.978z"/>
			</g>
		</g>
		<g>
			<path style="fill:#EB4747;" d="M2193.924,623.708c0,0-49.084,15.876-12.24,108.995l72.225-18.115
				C2253.908,714.588,2248.675,600.488,2193.924,623.708z"/>
		</g>
	</g>
	<g>
		<path style="fill:#FAB46C;" d="M1420.647,1647.418c0,0-13.817,12.113-26.228,30.722c-12.401,18.608-45.34,19.598-46.75,45.001
			c-1.41,25.405,44.779,26.185,69.03,17.918c24.247-8.273,27.917-33.086,42.577-39.289c14.667-6.204,22.28-11.223,21.152-23.336
			c-1.128-12.11-9.243-31.771-9.243-31.771s-9.11,2.91-14.468,3.501C1451.36,1650.754,1433.337,1650.964,1420.647,1647.418z"/>
		<path style="fill:#5F8CC9;" d="M1586.863,959.144c0,0-9.293,55.27-16.784,91.778c0,0,0,0,0,0.003
			c-3.038,14.801-5.78,26.521-7.482,30.215c-2.142,4.638-19.586,23.371-40.936,45.354c-37.462,38.563-86.957,87.128-86.957,87.128
			l-19.349-36.731c0,0,43.963-51.54,73.764-85.925c13.797-15.92,24.56-28.156,26.527-29.921
			c6.232-5.576,13.464-60.501,23.627-105.754c10.167-45.256,30.539-70.263,30.539-70.263L1586.863,959.144z"/>
		<path style="fill:#EEA886;" d="M1521.661,1126.495c-37.462,38.563-86.957,87.128-86.957,87.128l-19.349-36.731
			c0,0,43.963-51.54,73.764-85.925C1498.26,1095.446,1515.029,1106.132,1521.661,1126.495z"/>
		<rect x="1321.832" y="1303.343" style="fill:#807066;" width="14.762" height="356.528"/>
		<rect x="1903.928" y="1303.343" style="fill:#807066;" width="14.763" height="356.528"/>
		<rect x="1266.544" y="1283.994" style="fill:#2F4563;" width="716.286" height="25.582"/>
		<g>
			<path style="fill:#FAB46C;" d="M1761.908,1632.287c0,0,12.725,14.066,20.249,22.595c7.524,8.528,36.341,23.773,36.497,49.102
				c0.168,27.467-21.261,25.061-40.324,24.058c-19.064-1.005-34.556-14.174-42.583-29.729c-8.025-15.551-29.381-19.637-30.884-32.18
				c-1.506-12.539,9.899-35.113,9.899-35.113L1761.908,1632.287z"/>
		</g>
		<path style="fill:#5F8CC9;" d="M1717.223,1607.64l-2.46,23.381c0,0,39.79,17.337,47.146,1.267l-1.707-20.822L1717.223,1607.64z"/>
		<path style="fill:#5F8CC9;" d="M1422.813,1630.496l-2.166,16.922c0,0,24.047,8.498,50.539-0.756l0.537-15.048L1422.813,1630.496z"
			/>
		<path style="fill:#5F8CC9;" d="M1764.158,1206.153c1.383,4.92-254.685,0-254.685,0s70.832-51.562,75.422-65.331
			c4.593-13.772-18.035-96.415-20.983-123.306c-2.361-21.515-8.28-117.784,5.9-132.486c14.825-15.371,68.211-31.48,68.211-31.48
			l77.831,2.886c0,0,12.843,2.688,22.025,6.951c9.183,4.263,61.692,22.967,70.221,49.201
			c8.522,26.234-52.396,110.587-52.396,110.587s-0.12,3.792-0.304,10.005c0,0.003,0,0.003,0,0.003
			c-0.233,8.282-0.585,20.87-0.899,34.528c-0.408,17.685-0.765,37.156-0.765,51.382
			C1753.737,1152.54,1762.778,1201.233,1764.158,1206.153z"/>
		<path style="fill:#EDDAD3;" d="M1764.158,1206.153c0,0,34.832,51.157,35.32,86.081c0.495,34.921-12.902,131.763-13.883,150.944
			c-0.984,19.184-19.02,179.056-19.02,179.056s-13.94,12.953-55.749-3.279c0,0-9.231-151.613-10.215-167.845
			c-0.98-16.229-0.98-90.998-10.332-101.818c-9.344-10.82-65.909-44.765-73.286-51.157c-7.379-6.393-135.918,24.287-149.381,27.779
			c-34.883,9.047-18.983,69.729-11.265,96.932c12.909,45.517,24.188,209.882,24.188,209.882s-24.842,10.584-66.45,1.641
			c0,0-81.705-296.785-84.323-326.298c-2.622-29.516-3.912-78.183,197.427-115.174L1764.158,1206.153z"/>
		<path style="fill:#EEA886;" d="M1659.38,684.448c0,0-67.56-15.239-52.129,69.786c15.434,85.025,31.682,91.706,72.441,74.111
			c40.759-17.597,37.108-72.072,39.163-98.782C1720.906,702.849,1680.931,685.377,1659.38,684.448z"/>
		<path style="fill:#EEA886;" d="M1641.5,875.373c0,0,29.924,31.721,77.214,2.895c0,0-10.581-68.748-5.011-102.232
			c5.565-33.484-61.7,51.883-61.7,51.883c0.888,0.465,1.473,3.657,1.607,8.205c0.114,3.852-0.09,8.679-0.708,13.626
			C1651.514,860.878,1648.052,872.635,1641.5,875.373z"/>
		<path style="fill:#3A3F47;" d="M1715.563,773.192c0,0-1.746-26.792-11.531-27.626c-9.782-0.837-11.288,9.953-11.288,9.953
			l-9.882,1.863c0,0,3.123-23.48-6.648-27.581c-9.768-4.103-63.301,12.927-71.144,6.033c-7.842-6.893-4.152-54.519,10.031-61.035
			c14.184-6.522,53.356-21.125,82.055-1.698c0,0,22.373-2.553,25.688,15.503C1726.165,706.659,1721.645,759.768,1715.563,773.192z"
			/>
		<path style="fill:#A77860;" d="M1652.902,849.749c48.787-15.042,52.462-44.419,52.516-44.878
			c-16.067,27.605-51.808,31.253-51.808,31.253C1653.725,839.976,1653.521,844.802,1652.902,849.749z"/>
		<path style="fill:#EEA886;" d="M1738.683,863.755c0,0-35.729,71.121-93.445,66.531c-57.718-4.593-9.837-76.08-7.215-76.736
			C1640.906,852.821,1697.217,838.791,1738.683,863.755z"/>
		<path style="fill:#5F8CC9;" d="M1480.18,1202.551c0,0,176.842,21.806,283.979,3.603l-204.716-25.577
			C1559.442,1180.576,1558.232,1185.796,1480.18,1202.551z"/>
		<path style="fill:#EEA886;" d="M1612.446,1172.521l-13.173,6.672c0,0,2.997,20.928,10.212,27.269l14.78-3.771
			C1624.266,1202.691,1621.191,1179.736,1612.446,1172.521z"/>
		<path style="fill:#5F8CC9;" d="M1817.076,1129.675c-2.631,3.048-37.399,17.03-76.671,32.155l-0.006,0.006
			c-53.655,20.669-114.178,40.223-114.178,40.223l-13.775-29.537c0,0,63.381-34.438,106.207-58.59
			c20.229-11.408,35.873-20.523,38.083-22.631c6.885-6.558,8.67-17.075,3.606-35.416c-5.06-18.342-16.722-102.644-18.038-112.483
			c-1.309-9.836,3.281-36.07,27.875-37.384c24.599-1.312,37.113,5.63,37.113,5.63s6.178,2.568,10.767,62.253
			C1822.652,1033.583,1823.309,1122.457,1817.076,1129.675z"/>
		<path style="fill:#5075A8;" d="M1755.401,1033.179c0,0.003,0,0.003,0,0.003c-0.233,8.282-0.585,20.87-0.899,34.528
			c-24.008-58.843-10.137-105.796-9.902-106.588C1742.001,977.09,1755.213,1032.39,1755.401,1033.179z"/>
		<path style="fill:#5075A8;" d="M1570.079,1050.923c0,0,0,0,0,0.003c-3.038,14.801-5.78,26.521-7.482,30.215
			c-8.198-39.683-0.822-90.485-0.822-90.485C1562.897,1014.924,1570.079,1050.923,1570.079,1050.923z"/>
		<path style="fill:#EEA886;" d="M1740.405,1161.83l-0.006,0.006c-53.655,20.669-116.134,40.855-116.134,40.855l-11.819-30.17
			c0,0,63.381-34.438,106.207-58.59C1718.653,1113.932,1734.231,1121.519,1740.405,1161.83z"/>
		<polygon style="fill:#5E5853;" points="1608.631,1204.44 1357.281,1200.742 1484.184,1265.182 		"/>
		<polygon style="fill:#91887F;" points="1484.184,1265.182 1608.631,1216.976 1608.631,1204.44 1474.348,1252.882 		"/>
		<g>
			<path style="fill:#EEA886;" d="M1602.115,1179.652c0,0-15.698-2.444-26.549-4.971c-8.4-1.956-29.282,0.741-34.598,6.129
				c-5.321,5.388-22.232,42.94-25.432,45.235c-3.198,2.288,1.638,7.592,7.257,4.929c0,0,5.159,16.43,17.888,10.28
				c12.729-6.153,21.371-19.58,28.04-21.95c6.666-2.36,45.483-14.297,45.483-14.297S1612.119,1175.654,1602.115,1179.652z"/>
		</g>
		<g>
			<path style="fill:#EEA886;" d="M1544.8,1178.35c0,0-10.083,4.869-12.717,7.041c-2.634,2.172-13.308,10.16-15.89,12.041
				c-2.586,1.875,3.899,7.224,22.979-1.038C1558.251,1188.127,1544.8,1178.35,1544.8,1178.35z"/>
		</g>
		<polygon style="fill:#6E6760;" points="1484.184,1265.182 1409.419,1061.05 1168.398,1064.982 1239.65,1253.095 		"/>
		<path style="fill:#807066;" d="M1332.302,1151.354c7.356,14.7,5.133,30.716-4.965,35.765
			c-10.092,5.049-24.239-2.777-31.592-17.479c-7.356-14.703-5.133-30.716,4.958-35.765
			C1310.801,1128.826,1324.946,1136.649,1332.302,1151.354z"/>
	</g>
</g>
</svg>
